<mxfile host="app.diagrams.net" modified="2023-07-07T02:50:26.262Z" agent="Mozilla/5.0 (Macintosh; Intel Mac OS X 10_15_7) AppleWebKit/537.36 (KHTML, like Gecko) Chrome/114.0.0.0 Safari/537.36" version="21.6.1" etag="v8YjdPKLBfUXJ6j5iQdG" type="github">
  <diagram name="第 1 页" id="wXSh4p9vYR1q-etKgUeV">
    <mxGraphModel>
      <root>
        <mxCell id="0" />
        <mxCell id="1" parent="0" />
      </root>
    </mxGraphModel>
  </diagram>
</mxfile>
